Coordinates
version=1
nRows=10
nColumns=63
inDegrees=yes

Units are S.I. units (second, meters, Newtons, ...)
If the header above contains a line with 'inDegrees', this indicates whether rotational values are in degrees (yes) or radians (no).

endheader
time	pelvis_tilt	pelvis_list	pelvis_rotation	pelvis_tx	pelvis_ty	pelvis_tz	hip_flexion_r	hip_adduction_r	hip_rotation_r	knee_angle_r	knee_angle_r_beta	ankle_angle_r	subtalar_angle_r	mtp_angle_r	hip_flexion_l	hip_adduction_l	hip_rotation_l	knee_angle_l	knee_angle_l_beta	ankle_angle_l	subtalar_angle_l	mtp_angle_l	L5_S1_Flex_Ext	L5_S1_Lat_Bending	L5_S1_axial_rotation	L4_L5_Flex_Ext	L4_L5_Lat_Bending	L4_L5_axial_rotation	L3_L4_Flex_Ext	L3_L4_Lat_Bending	L3_L4_axial_rotation	L2_L3_Flex_Ext	L2_L3_Lat_Bending	L2_L3_axial_rotation	L1_L2_Flex_Ext	L1_L2_Lat_Bending	L1_L2_axial_rotation	L1_T12_Flex_Ext	L1_T12_Lat_Bending	L1_T12_axial_rotation	Abs_r3	Abs_r2	Abs_r1	Abs_t1	Abs_t2	neck_flexion	neck_bending	neck_rotation	arm_flex_r	arm_add_r	arm_rot_r	elbow_flex_r	pro_sup_r	wrist_flex_r	wrist_dev_r	arm_flex_l	arm_add_l	arm_rot_l	elbow_flex_l	pro_sup_l	wrist_flex_l	wrist_dev_l
      1.93220339	     -3.04435679	     -3.47983421	     93.29847962	      0.12242338	      1.01200797	      0.37581703	     -3.52970902	      3.10814315	     -6.19890666	      2.67016066	      0.04660310	     27.37010164	     -4.42973989	      0.00000000	     -0.85606359	     -1.49357128	      9.37045262	      4.59362836	      0.08017394	     31.96151125	      0.84572236	      0.00000000	      0.02978743	      0.07631035	     -1.25220790	      0.05531824	      0.10149277	     -1.33047090	      0.04893778	      0.18554100	     -1.33047090	      0.03404406	      0.18554100	     -1.09568192	      0.02766061	      0.15561207	     -1.01741892	      0.01702054	      0.11820474	     -0.93915593	      0.21276866	      0.86323799	     -6.96440470	      0.00000000	      0.00000000	     25.20143285	     16.06772369	    -31.20067369	     16.91491658	    -10.18254985	    116.26089376	     18.64343060	      8.31871799	      6.90034986	      0.25772627	      3.93719119	    -13.44732618	    130.54600747	     13.02983436	      5.90072796	     -6.74054978	     -5.50754791
      1.94915254	     -3.30260801	     -3.57262035	     93.09485401	      0.12320253	      1.01146573	      0.37718946	     -3.01406852	      2.75451329	     -7.81352177	      3.36327690	      0.05870026	     28.59794397	     -1.83817682	      0.00000000	     -0.21581695	     -1.52390986	      2.03756053	      5.70952371	      0.09964999	     33.64386720	     10.00470351	      0.00000000	      0.01255845	      0.02377723	     -1.23348682	      0.02332230	      0.03162372	     -1.31057974	      0.02063228	      0.05781196	     -1.31057974	      0.01435305	      0.05781196	     -1.07930096	      0.01166178	      0.04848653	     -1.00220804	      0.00717590	      0.03683093	     -0.92511511	      0.08970375	      0.26897279	     -6.86028362	      0.00000000	      0.00000000	     25.50497992	     16.33278180	    -32.09586630	     16.91561978	     -9.65127990	    114.63442251	     17.62285392	     14.07104508	      6.51279221	     -1.00947111	      3.20460197	    -13.96324595	    126.78881161	     12.04510326	      8.93771238	     -5.33691812	     -4.94727490
      1.96610169	     -3.26634845	     -3.55594826	     93.08552987	      0.12348947	      1.01105993	      0.37799118	     -2.92958609	      2.84202417	     -7.76249501	      3.36383696	      0.05871003	     28.78801792	     -1.82498556	      0.00000000	     -0.18593315	     -1.59189674	      2.04997612	      5.73732100	      0.10013514	     33.63142503	     10.01486617	      0.00000000	      0.00236365	      0.01786349	     -1.22279865	      0.00438954	      0.02375844	     -1.29922357	      0.00388324	      0.04343328	     -1.29922357	      0.00270142	      0.04343328	     -1.06994882	      0.00219489	      0.03642722	     -0.99352391	      0.00135059	      0.02767054	     -0.91709899	      0.01688332	      0.20207534	     -6.80083927	      0.00000000	      0.00000000	     25.49105462	     16.34029116	    -32.12502650	     17.13238529	     -9.58715362	    114.59654574	     17.52923179	     14.10134822	      6.46840620	     -1.11171681	      3.02789645	    -14.27868661	    126.86211863	     11.94080725	      8.96907326	     -5.34364705	     -4.88277983
      1.98305085	     -3.45154717	     -3.64252193	     92.30632242	      0.12439488	      1.01081336	      0.37909961	     -2.23789409	      2.38551741	    -10.54678483	      4.49950676	      0.07853121	     30.48903233	      3.22966335	      0.00000000	     -0.02892146	     -1.41974110	      0.46758707	      5.99491197	      0.10463095	     33.80014066	     10.98246586	      0.00000000	     -0.00436568	     -0.01233398	     -1.00514641	     -0.00810750	     -0.01640419	     -1.06796806	     -0.00717237	     -0.02998883	     -1.06796806	     -0.00498953	     -0.02998883	     -0.87950311	     -0.00405397	     -0.02515144	     -0.81668146	     -0.00249455	     -0.01910533	     -0.75385981	     -0.03118359	     -0.13952440	     -5.59032278	      0.00000000	      0.00000000	     25.69572546	     16.13991866	    -33.30708241	     16.91406232	     -9.61734677	    113.03955742	     17.11985630	     18.45839860	      5.14030897	     -3.03175364	      3.35575130	    -14.28696012	    130.01948658	     11.28228797	     10.05507631	     -5.19373658	     -4.38424780
      2.00000000	     -3.41828776	     -3.65681586	     92.22555051	      0.12428576	      1.01074407	      0.37967009	     -1.98602661	      2.37006477	    -10.79207691	      4.91097179	      0.08571263	     30.88937615	      3.84525586	      0.00000000	      0.01416960	     -1.41610116	      0.93317429	      6.03633501	      0.10535392	     33.84214531	     10.27822230	      0.00000000	     -0.00542586	     -0.01036256	     -0.92193958	     -0.01007636	     -0.01378221	     -0.97956080	     -0.00891414	     -0.02519554	     -0.97956080	     -0.00620121	     -0.02519554	     -0.80669713	     -0.00503845	     -0.02113134	     -0.74907591	     -0.00310034	     -0.01605161	     -0.69145468	     -0.03875636	     -0.11722340	     -5.12755134	      0.00000000	      0.00000000	     25.70063228	     15.93847204	    -33.98299931	     16.71150456	    -10.01151296	    110.56067538	     17.34914770	     21.54493725	      4.12579063	     -3.37870351	      3.47647226	    -14.40527695	    128.79585840	     11.07669406	     14.16693670	     -5.72404866	     -3.74796487
      2.01694915	     -3.43491953	     -3.63729125	     91.90644948	      0.12417668	      1.01098363	      0.38034670	     -1.63110614	      2.01561627	    -14.98470859	      5.77836508	      0.10085150	     32.21315355	      9.99307482	      0.00000000	      0.01462949	     -1.38767581	      0.21474484	      6.10246133	      0.10650804	     34.00635915	     10.85477057	      0.00000000	     -0.00605601	     -0.00098446	     -0.78754437	     -0.01124662	     -0.00130933	     -0.83676590	     -0.00994942	     -0.00239362	     -0.83676590	     -0.00692142	     -0.00239362	     -0.68910133	     -0.00562361	     -0.00200751	     -0.63987980	     -0.00346040	     -0.00152493	     -0.59065828	     -0.04325748	     -0.01113643	     -4.38008555	      0.00000000	      0.00000000	     25.61797071	     15.86348665	    -33.82290098	     17.12429527	    -10.10428179	    113.97256014	     17.17903160	     19.62049122	      3.56158701	     -4.32568771	      4.43171246	    -13.52085981	    142.09673127	     10.04648479	      8.57709891	     -6.38717379	     -3.72681499
      2.03389831	     -3.44396583	     -3.61932339	     91.80602101	      0.12393295	      1.01129063	      0.38068357	     -1.49908982	      1.90990989	    -15.44772189	      6.12462672	      0.10689490	     32.40761737	     10.71932793	      0.00000000	     -0.02653073	     -1.31824681	      0.83182646	      6.03629858	      0.10535328	     33.95412002	      9.97968909	      0.00000000	     -0.00256907	      0.00658489	     -0.69663619	     -0.00477102	      0.00875791	     -0.74017595	     -0.00422072	      0.01601051	     -0.74017595	     -0.00293619	      0.01601051	     -0.60955667	     -0.00238564	      0.01342791	     -0.56601691	     -0.00146797	      0.01020000	     -0.52247714	     -0.01835060	      0.07448962	     -3.87448151	      0.00000000	      0.00000000	     25.51038053	     15.71022218	    -33.87413210	     17.57640614	    -10.01658402	    118.85042149	     16.80993601	     16.59163849	      3.21684534	     -5.28258853	      4.99648090	    -12.84919962	    150.35170422	      8.97247925	      9.22264033	     -7.80399010	     -3.17497740
      2.05084746	     -3.45083092	     -3.57678057	     91.72144897	      0.12360831	      1.01162698	      0.38087799	     -1.44559040	      1.82667769	    -15.58298701	      6.37239882	      0.11121934	     32.45202495	     10.90754086	      0.00000000	     -0.09075490	     -1.27231219	      0.90254804	      5.97682655	      0.10431530	     33.92678742	      9.81749008	      0.00000000	     -0.00124075	      0.01960940	     -0.63861663	     -0.00230420	      0.02608051	     -0.67853017	     -0.00203843	      0.04767831	     -0.67853017	     -0.00141806	      0.04767831	     -0.55878955	     -0.00115216	      0.03998750	     -0.51887601	     -0.00070897	      0.03037497	     -0.47896247	     -0.00886258	      0.22182551	     -3.55179413	      0.00000000	      0.00000000	     25.36131333	     15.66913854	    -33.43786303	     17.83130602	    -10.28927080	    120.08445014	     16.96008496	     17.62610768	      2.47060645	     -5.26061013	      5.42751266	    -12.40981982	    154.71448570	      8.33478342	     13.10931529	    -10.22031784	     -2.58166350
      2.06779661	     -3.48371340	     -3.52997716	     91.86107358	      0.12322542	      1.01208156	      0.38089983	     -1.48794370	      1.74676091	    -16.07465195	      6.46328101	      0.11280553	     32.41379290	     11.15694166	      0.00000000	     -0.11813384	     -1.21227395	      1.28458167	      5.96785483	      0.10415872	     33.87469720	      9.52810914	      0.00000000	     -0.00665817	      0.02289218	     -0.59564466	     -0.01236488	      0.03044660	     -0.63287245	     -0.01093870	      0.05566004	     -0.63287245	     -0.00760962	      0.05566004	     -0.52118908	     -0.00618278	      0.04668173	     -0.48396129	     -0.00380448	      0.03545998	     -0.44673350	     -0.04755863	      0.25896089	     -3.31279691	      0.00000000	      0.00000000	     25.39011798	     15.55304394	    -33.55786689	     17.81240929	    -10.43593854	    121.18132297	     16.76614253	     18.27236562	      1.87460240	     -5.70301510	      5.90490817	    -11.96579608	    159.74441348	      7.54283956	     16.50996312	    -12.16834970	     -1.45960856
      2.08474576	     -3.48513430	     -3.51532987	     92.01433677	      0.12278264	      1.01250652	      0.38083161	     -1.49132539	      1.66170862	    -17.05114510	      6.58328055	      0.11489992	     32.46623466	     11.95693959	      0.00000000	     -0.19223542	     -1.13148553	      2.67335312	      5.78774262	      0.10101517	     33.52023463	      7.94564462	      0.00000000	     -0.01050756	      0.03231672	     -0.59263535	     -0.01951358	      0.04298123	     -0.62967506	     -0.01726286	      0.07857486	     -0.62967506	     -0.01200909	      0.07857486	     -0.51855593	     -0.00975732	      0.06590025	     -0.48151622	     -0.00600402	      0.05005859	     -0.44447651	     -0.07505442	      0.36557316	     -3.29606001	      0.00000000	      0.00000000	     25.42347657	     15.43581974	    -33.53725375	     17.97957814	    -10.45383366	    123.75485325	     16.58664006	     16.96064119	      1.91662247	     -5.91810044	      6.21726371	    -11.46372196	    167.82070331	      6.72362538	     13.41120313	    -13.54146702	     -0.69340990
